<svg id="visual" viewBox="0 0 960 540" width="960" height="540" xmlns="http://www.w3.org/2000/svg" xmlns:xlink="http://www.w3.org/1999/xlink" version="1.1"><path d="M0 55L17.8 51.3C35.7 47.7 71.3 40.3 106.8 38.5C142.3 36.7 177.7 40.3 213.2 41.3C248.7 42.3 284.3 40.7 320 44.3C355.7 48 391.3 57 426.8 58.8C462.3 60.7 497.7 55.3 533.2 56.2C568.7 57 604.3 64 640 67.5C675.7 71 711.3 71 746.8 64.7C782.3 58.3 817.7 45.7 853.2 43.8C888.7 42 924.3 51 942.2 55.5L960 60L960 0L942.2 0C924.3 0 888.7 0 853.2 0C817.7 0 782.3 0 746.8 0C711.3 0 675.7 0 640 0C604.3 0 568.7 0 533.2 0C497.7 0 462.3 0 426.8 0C391.3 0 355.7 0 320 0C284.3 0 248.7 0 213.2 0C177.7 0 142.3 0 106.8 0C71.3 0 35.7 0 17.8 0L0 0Z" fill="#004cbb"></path><path d="M0 239L17.8 233.5C35.7 228 71.3 217 106.8 197.2C142.3 177.3 177.7 148.7 213.2 138.8C248.7 129 284.3 138 320 142.5C355.7 147 391.3 147 426.8 152.3C462.3 157.7 497.7 168.3 533.2 172.8C568.7 177.3 604.3 175.7 640 173.8C675.7 172 711.3 170 746.8 160C782.3 150 817.7 132 853.2 135.7C888.7 139.3 924.3 164.7 942.2 177.3L960 190L960 58L942.2 53.5C924.3 49 888.7 40 853.2 41.8C817.7 43.7 782.3 56.3 746.8 62.7C711.3 69 675.7 69 640 65.5C604.3 62 568.7 55 533.2 54.2C497.7 53.3 462.3 58.7 426.8 56.8C391.3 55 355.7 46 320 42.3C284.3 38.7 248.7 40.3 213.2 39.3C177.7 38.3 142.3 34.7 106.8 36.5C71.3 38.3 35.7 45.7 17.8 49.3L0 53Z" fill="#005feb"></path><path d="M0 298L17.8 290.8C35.7 283.7 71.3 269.3 106.8 255.8C142.3 242.3 177.7 229.7 213.2 218.8C248.7 208 284.3 199 320 200.8C355.7 202.7 391.3 215.3 426.8 230.7C462.3 246 497.7 264 533.2 269.3C568.7 274.7 604.3 267.3 640 254.7C675.7 242 711.3 224 746.8 212.3C782.3 200.7 817.7 195.3 853.2 200.8C888.7 206.3 924.3 222.7 942.2 230.8L960 239L960 188L942.2 175.3C924.3 162.7 888.7 137.3 853.2 133.7C817.7 130 782.3 148 746.8 158C711.3 168 675.7 170 640 171.8C604.3 173.7 568.7 175.3 533.2 170.8C497.7 166.3 462.3 155.7 426.8 150.3C391.3 145 355.7 145 320 140.5C284.3 136 248.7 127 213.2 136.8C177.7 146.7 142.3 175.3 106.8 195.2C71.3 215 35.7 226 17.8 231.5L0 237Z" fill="#367cff"></path><path d="M0 320L17.8 313.7C35.7 307.3 71.3 294.7 106.8 282.8C142.3 271 177.7 260 213.2 250C248.7 240 284.3 231 320 232C355.7 233 391.3 244 426.8 261.2C462.3 278.3 497.7 301.7 533.2 311.5C568.7 321.3 604.3 317.7 640 303.3C675.7 289 711.3 264 746.8 247.8C782.3 231.7 817.7 224.3 853.2 230.5C888.7 236.7 924.3 256.3 942.2 266.2L960 276L960 237L942.2 228.8C924.3 220.7 888.7 204.3 853.2 198.8C817.7 193.3 782.3 198.7 746.8 210.3C711.3 222 675.7 240 640 252.7C604.3 265.3 568.7 272.7 533.2 267.3C497.7 262 462.3 244 426.8 228.7C391.3 213.3 355.7 200.7 320 198.8C284.3 197 248.7 206 213.2 216.8C177.7 227.7 142.3 240.3 106.8 253.8C71.3 267.3 35.7 281.7 17.8 288.8L0 296Z" fill="#6198ff"></path><path d="M0 417L17.8 410.7C35.7 404.3 71.3 391.7 106.8 386.2C142.3 380.7 177.7 382.3 213.2 382.3C248.7 382.3 284.3 380.7 320 382.5C355.7 384.3 391.3 389.7 426.8 398.7C462.3 407.7 497.7 420.3 533.2 427.5C568.7 434.7 604.3 436.3 640 429.2C675.7 422 711.3 406 746.8 402.5C782.3 399 817.7 408 853.2 409.8C888.7 411.7 924.3 406.3 942.2 403.7L960 401L960 274L942.2 264.2C924.3 254.3 888.7 234.7 853.2 228.5C817.7 222.3 782.3 229.7 746.8 245.8C711.3 262 675.7 287 640 301.3C604.3 315.7 568.7 319.3 533.2 309.5C497.7 299.7 462.3 276.3 426.8 259.2C391.3 242 355.7 231 320 230C284.3 229 248.7 238 213.2 248C177.7 258 142.3 269 106.8 280.8C71.3 292.7 35.7 305.3 17.8 311.7L0 318Z" fill="#6198ff"></path><path d="M0 449L17.8 447.2C35.7 445.3 71.3 441.7 106.8 440.8C142.3 440 177.7 442 213.2 436.7C248.7 431.3 284.3 418.7 320 415C355.7 411.3 391.3 416.7 426.8 426.5C462.3 436.3 497.7 450.7 533.2 457.8C568.7 465 604.3 465 640 458.8C675.7 452.7 711.3 440.3 746.8 437.7C782.3 435 817.7 442 853.2 445.5C888.7 449 924.3 449 942.2 449L960 449L960 399L942.2 401.7C924.3 404.3 888.7 409.7 853.2 407.8C817.7 406 782.3 397 746.8 400.5C711.3 404 675.7 420 640 427.2C604.3 434.3 568.7 432.7 533.2 425.5C497.7 418.3 462.3 405.7 426.8 396.7C391.3 387.7 355.7 382.3 320 380.5C284.3 378.7 248.7 380.3 213.2 380.3C177.7 380.3 142.3 378.7 106.8 384.2C71.3 389.7 35.7 402.3 17.8 408.7L0 415Z" fill="#367cff"></path><path d="M0 519L17.8 516.3C35.7 513.7 71.3 508.3 106.8 504.8C142.3 501.3 177.7 499.7 213.2 497.8C248.7 496 284.3 494 320 494C355.7 494 391.3 496 426.8 500.5C462.3 505 497.7 512 533.2 514.7C568.7 517.3 604.3 515.7 640 513C675.7 510.3 711.3 506.7 746.8 503C782.3 499.3 817.7 495.7 853.2 497.5C888.7 499.3 924.3 506.7 942.2 510.3L960 514L960 447L942.2 447C924.3 447 888.7 447 853.2 443.5C817.7 440 782.3 433 746.8 435.7C711.3 438.3 675.7 450.7 640 456.8C604.3 463 568.7 463 533.2 455.8C497.7 448.7 462.3 434.3 426.8 424.5C391.3 414.7 355.7 409.3 320 413C284.3 416.7 248.7 429.3 213.2 434.7C177.7 440 142.3 438 106.8 438.8C71.3 439.7 35.7 443.3 17.8 445.2L0 447Z" fill="#005feb"></path><path d="M0 541L17.8 541C35.7 541 71.3 541 106.8 541C142.3 541 177.7 541 213.2 541C248.7 541 284.3 541 320 541C355.7 541 391.3 541 426.8 541C462.3 541 497.7 541 533.2 541C568.7 541 604.3 541 640 541C675.7 541 711.3 541 746.8 541C782.3 541 817.7 541 853.2 541C888.7 541 924.3 541 942.2 541L960 541L960 512L942.2 508.3C924.3 504.7 888.7 497.3 853.2 495.5C817.7 493.7 782.3 497.3 746.8 501C711.3 504.7 675.7 508.3 640 511C604.3 513.7 568.7 515.3 533.2 512.7C497.7 510 462.3 503 426.8 498.5C391.3 494 355.7 492 320 492C284.3 492 248.7 494 213.2 495.8C177.7 497.7 142.3 499.3 106.8 502.8C71.3 506.3 35.7 511.7 17.8 514.3L0 517Z" fill="#004cbb"></path></svg>